<svg viewBox="0 0 296.085 296.085" xmlns="http://www.w3.org/2000/svg" xmlns:svg="http://www.w3.org/2000/svg">
  <ellipse cx="148.023" cy="147.798" rx="141.046" ry="140.773" style="font-variation-settings:&quot;wght&quot;400;fill:#fff;stroke:#fff;stroke-width:7.69355;stroke-opacity:1" />
  <path d="M147.956 296.051c-.094 0-.186-.004-.28-.004C66.258 295.823 0 229.541 0 148.098c0-38.547 14.63-75.041 41.396-102.76 26.693-27.643 62.648-43.66 100.648-45.1v.018c2-.158 4.211-.234 5.99-.234 1.699 0 6.078.191 6.331.201 38.2 1.6 73.866 17.689 100.419 45.305 26.632 27.699 41.301 64.119 41.301 102.555 0 81.432-66.253 147.815-147.707 147.98-.132 0-.276-.004-.422-.012zm132.132-147.969c0-34.279-13.08-66.762-36.831-91.465-9.432-9.809-20.151-17.988-31.789-24.369a77.63 77.63 0 0 1 11.933 24.668l-.04-.057a78.124 78.124 0 0 1 2.935 21.223c0 20.377-7.807 39.658-21.982 54.289-14.139 14.594-33.094 23.014-53.376 23.707-5.102.039-5.102.014-5.012.014l-.118-.004c-33.463 1.281-59.635 28.271-59.635 61.777 0 34.195 27.746 61.844 61.939 61.844h-.002c.058 0 .346.177.473.183 72.497-.306 131.505-59.28 131.505-131.81zM148.088 98c11.028 0 20-8.973 20-20 0-11.029-8.972-20-20-20s-20 8.971-20 20c0 11.028 8.971 20 20 20z" />
  <path d="M128.088 218c0-11.029 8.972-20 20-20s20 8.971 20 20c0 11.027-8.972 20-20 20-11.029 0-20-8.972-20-20z" />
</svg>
